<?xml version="1.0" encoding="UTF-8" ?>
<!DOCTYPE svg PUBLIC "-//W3C//DTD SVG 1.1//EN" "http://www.w3.org/Graphics/SVG/1.1/DTD/svg11.dtd">
<svg width="256pt" height="256pt" viewBox="0 0 256 256" version="1.1" xmlns="http://www.w3.org/2000/svg">
<path fill="#ffffff" d=" M 0.00 0.00 L 256.00 0.00 L 256.00 256.00 L 0.00 256.00 L 0.00 0.00 Z" />
<path fill="#ffae1b" d=" M 92.43 71.08 C 94.04 71.01 95.65 70.93 97.26 70.84 C 96.94 72.37 96.62 73.90 96.32 75.44 C 97.61 75.59 98.90 75.73 100.19 75.87 C 118.55 76.06 136.93 75.47 155.30 75.84 C 153.60 76.55 151.93 77.37 150.34 78.30 C 150.10 78.80 149.64 79.81 149.40 80.31 C 149.12 83.86 149.26 87.42 149.23 90.98 C 148.79 90.97 147.92 90.95 147.48 90.94 C 147.53 87.46 147.54 83.98 147.56 80.50 C 130.43 79.73 113.26 80.08 96.11 79.98 C 94.09 77.60 93.00 74.68 92.55 71.62 L 92.43 71.08 Z" />
<path fill="#ffc138" d=" M 97.26 70.84 C 99.05 71.98 100.21 73.68 100.19 75.87 C 98.90 75.73 97.61 75.59 96.32 75.44 C 96.62 73.90 96.94 72.37 97.26 70.84 Z" />
<path fill="#d77001" d=" M 90.71 76.36 C 90.42 74.53 91.10 72.76 92.55 71.62 C 93.00 74.68 94.09 77.60 96.11 79.98 C 94.44 79.98 92.76 79.97 91.08 79.97 C 90.99 79.07 90.81 77.26 90.71 76.36 Z" />
<path fill="#febf31" d=" M 155.30 75.84 C 176.39 75.73 197.48 75.58 218.57 75.79 C 223.76 79.82 229.76 82.98 233.59 88.54 C 231.00 88.98 228.36 89.13 225.81 89.79 C 224.15 92.64 223.21 95.83 221.89 98.84 C 220.49 95.30 217.90 92.33 214.53 90.54 C 211.57 89.38 208.40 88.90 205.23 88.87 C 202.87 87.59 200.40 86.51 197.87 85.63 C 198.89 84.71 199.88 83.75 200.71 82.65 C 200.45 81.40 198.89 81.88 198.00 81.60 C 181.81 81.09 165.59 81.13 149.40 80.31 C 149.64 79.81 150.10 78.80 150.34 78.30 C 151.93 77.37 153.60 76.55 155.30 75.84 Z" />
<path fill="#ffb423" d=" M 218.57 75.79 C 227.46 76.46 237.45 75.32 245.17 80.68 C 244.52 81.50 243.88 82.32 243.24 83.15 C 241.97 81.49 240.41 79.46 238.02 79.93 C 235.13 79.47 234.22 82.79 234.81 85.01 C 235.94 86.02 237.23 86.83 238.52 87.63 C 236.87 87.94 235.24 88.27 233.59 88.54 C 229.76 82.98 223.76 79.82 218.57 75.79 Z" />
<path fill="#ff9800" d=" M 35.10 80.04 C 53.50 77.30 72.14 76.69 90.71 76.36 C 90.81 77.26 90.99 79.07 91.08 79.97 C 88.86 79.96 86.65 80.00 84.44 80.15 C 85.99 80.97 87.61 81.69 89.31 82.14 C 89.56 82.21 90.07 82.36 90.32 82.43 C 95.40 84.23 100.69 85.26 105.94 86.46 C 106.03 87.08 106.22 88.31 106.31 88.93 C 97.35 86.83 87.82 84.11 78.67 86.54 C 76.75 86.10 74.80 86.36 72.96 86.99 C 58.84 91.27 44.66 95.43 30.95 100.89 C 25.07 103.23 19.30 105.86 13.77 108.94 C 17.62 103.41 24.64 101.74 30.44 99.05 C 30.48 96.88 30.52 94.71 30.57 92.55 C 33.80 91.22 37.08 89.99 40.46 89.06 C 46.34 87.16 52.88 86.62 58.02 82.91 C 51.73 80.27 44.75 82.97 38.26 83.58 C 36.83 83.83 35.39 84.08 33.96 84.32 C 34.34 82.90 34.72 81.47 35.10 80.04 Z" />
<path fill="#f68f00" d=" M 13.80 87.34 C 19.87 82.69 27.78 81.50 35.10 80.04 C 34.72 81.47 34.34 82.90 33.96 84.32 C 30.13 84.95 26.32 85.59 22.55 86.49 C 21.06 92.07 17.00 96.18 13.40 100.47 C 19.22 98.05 24.65 94.76 30.57 92.55 C 30.52 94.71 30.48 96.88 30.44 99.05 C 24.64 101.74 17.62 103.41 13.77 108.94 C 12.39 110.15 10.97 111.31 9.54 112.46 C 9.59 110.61 9.64 108.76 9.73 106.91 C 9.21 107.50 8.17 108.68 7.64 109.27 C 7.63 107.57 7.69 105.88 7.80 104.19 C 8.69 103.29 9.60 102.41 10.46 101.48 C 13.13 98.72 15.48 95.65 17.33 92.29 C 18.59 90.00 19.73 87.64 20.97 85.34 C 21.20 84.98 21.66 84.25 21.89 83.89 C 19.74 84.96 17.62 86.09 15.48 87.18 L 13.80 87.34 Z" />
<path fill="#171718" d=" M 84.44 80.15 C 86.65 80.00 88.86 79.96 91.08 79.97 C 92.76 79.97 94.44 79.98 96.11 79.98 C 113.26 80.08 130.43 79.73 147.56 80.50 C 147.54 83.98 147.53 87.46 147.48 90.94 C 141.37 90.79 135.27 90.31 129.18 89.78 C 123.78 89.22 118.38 88.58 113.03 87.62 C 115.57 87.20 118.15 87.10 120.69 86.67 C 123.38 85.64 125.28 83.35 127.23 81.33 C 124.61 81.20 121.98 81.13 119.36 81.11 C 111.25 80.98 103.13 81.06 95.02 80.97 C 93.05 80.89 91.13 81.41 89.31 82.14 C 87.61 81.69 85.99 80.97 84.44 80.15 Z" />
<path fill="#131314" d=" M 149.23 90.98 C 149.26 87.42 149.12 83.86 149.40 80.31 C 165.59 81.13 181.81 81.09 198.00 81.60 C 198.89 81.88 200.45 81.40 200.71 82.65 C 199.88 83.75 198.89 84.71 197.87 85.63 C 192.01 88.54 185.41 89.37 178.99 90.06 C 170.05 91.02 161.04 91.08 152.06 91.01 C 151.35 91.00 149.93 90.99 149.23 90.98 Z" />
<path fill="#ac0c06" d=" M 234.81 85.01 C 234.22 82.79 235.13 79.47 238.02 79.93 C 240.41 79.46 241.97 81.49 243.24 83.15 C 244.44 85.73 245.36 88.44 246.26 91.15 L 245.03 91.44 C 242.83 90.22 240.69 88.91 238.52 87.63 C 237.23 86.83 235.94 86.02 234.81 85.01 Z" />
<path fill="#4c4c4c" d=" M 89.31 82.14 C 91.13 81.41 93.05 80.89 95.02 80.97 C 103.13 81.06 111.25 80.98 119.36 81.11 C 117.40 82.80 115.54 84.88 112.97 85.61 C 105.19 86.72 98.02 81.47 90.32 82.43 C 90.07 82.36 89.56 82.21 89.31 82.14 Z" />
<path fill="#343434" d=" M 119.36 81.11 C 121.98 81.13 124.61 81.20 127.23 81.33 C 125.28 83.35 123.38 85.64 120.69 86.67 C 118.15 87.10 115.57 87.20 113.03 87.62 C 110.66 87.27 108.29 86.93 105.94 86.46 C 100.69 85.26 95.40 84.23 90.32 82.43 C 98.02 81.47 105.19 86.72 112.97 85.61 C 115.54 84.88 117.40 82.80 119.36 81.11 Z" />
<path fill="#e09b1a" d=" M 243.24 83.15 C 243.88 82.32 244.52 81.50 245.17 80.68 C 250.68 87.43 253.01 96.18 253.66 104.73 C 252.03 104.84 250.40 104.95 248.78 105.06 L 248.07 105.10 C 247.91 100.62 246.79 96.23 244.88 92.17 C 244.92 91.99 244.99 91.63 245.03 91.44 L 246.26 91.15 C 245.36 88.44 244.44 85.73 243.24 83.15 Z" />
<path fill="#ffb523" d=" M 38.26 83.58 C 44.75 82.97 51.73 80.27 58.02 82.91 C 52.88 86.62 46.34 87.16 40.46 89.06 C 39.72 87.24 38.99 85.41 38.26 83.58 Z" />
<path fill="#1e1f21" d=" M 155.38 82.67 C 158.51 81.76 161.81 82.00 165.03 82.09 C 161.88 84.61 158.83 87.25 155.59 89.64 C 153.78 90.18 151.84 89.69 149.99 89.68 C 149.52 86.12 152.60 84.08 155.38 82.67 Z" />
<path fill="#2c2f32" d=" M 165.03 82.09 C 167.43 82.15 169.84 82.18 172.25 82.21 C 169.23 84.91 166.15 87.55 162.76 89.78 C 160.38 90.16 157.97 89.81 155.59 89.64 C 158.83 87.25 161.88 84.61 165.03 82.09 Z" />
<path fill="#3b3f44" d=" M 172.25 82.21 C 174.60 82.10 176.96 82.08 179.33 82.12 C 176.85 84.25 174.36 86.37 171.94 88.57 C 172.77 88.78 174.42 89.20 175.25 89.42 C 171.13 90.24 166.92 90.02 162.76 89.78 C 166.15 87.55 169.23 84.91 172.25 82.21 Z" />
<path fill="#4a5056" d=" M 179.33 82.12 C 185.31 82.23 191.35 81.82 197.31 82.55 C 193.55 82.59 189.72 82.52 186.05 83.39 C 183.22 84.71 181.15 87.16 178.63 88.95 C 177.54 89.37 176.42 89.53 175.25 89.42 C 174.42 89.20 172.77 88.78 171.94 88.57 C 174.36 86.37 176.85 84.25 179.33 82.12 Z" />
<path fill="#606871" d=" M 178.63 88.95 C 181.15 87.16 183.22 84.71 186.05 83.39 C 189.72 82.52 193.55 82.59 197.31 82.55 L 199.11 82.63 C 198.26 83.93 197.14 85.00 195.66 85.52 C 190.31 87.86 184.43 88.69 178.63 88.95 Z" />
<path fill="#000000" d=" M 15.48 87.18 C 17.62 86.09 19.74 84.96 21.89 83.89 C 21.66 84.25 21.20 84.98 20.97 85.34 C 19.48 86.31 17.93 87.18 16.46 88.17 C 11.99 90.96 12.09 97.00 10.46 101.48 C 9.60 102.41 8.69 103.29 7.80 104.19 C 10.29 98.49 10.58 91.59 15.48 87.18 Z" />
<path fill="#fec336" d=" M 22.55 86.49 C 26.32 85.59 30.13 84.95 33.96 84.32 C 35.39 84.08 36.83 83.83 38.26 83.58 C 38.99 85.41 39.72 87.24 40.46 89.06 C 37.08 89.99 33.80 91.22 30.57 92.55 C 24.65 94.76 19.22 98.05 13.40 100.47 C 17.00 96.18 21.06 92.07 22.55 86.49 Z" />
<path fill="#171718" d=" M 78.67 86.54 C 87.82 84.11 97.35 86.83 106.31 88.93 C 109.57 90.03 113.08 90.90 115.65 93.34 C 118.55 96.39 123.11 95.57 126.88 95.49 C 134.18 95.40 141.48 95.51 148.78 95.41 C 165.18 95.54 181.58 95.43 197.99 95.41 C 198.61 91.69 201.81 89.69 205.23 88.87 C 208.40 88.90 211.57 89.38 214.53 90.54 L 213.78 91.24 C 210.04 90.17 205.74 88.99 202.12 91.11 C 198.55 92.60 199.18 97.11 198.60 100.23 C 198.56 100.64 198.49 101.46 198.45 101.87 C 197.85 106.65 198.03 111.48 198.05 116.28 C 198.01 119.81 198.12 123.34 198.37 126.86 C 201.31 125.59 204.03 123.89 206.64 122.03 C 212.85 119.45 218.87 116.50 224.93 113.58 C 225.66 120.58 225.71 127.63 225.50 134.65 C 225.21 139.66 224.79 144.67 223.83 149.60 C 222.70 154.93 221.15 160.75 216.53 164.16 C 211.91 166.94 205.70 168.16 200.88 165.20 C 199.20 164.31 198.70 162.42 198.23 160.75 C 197.30 153.96 197.02 147.12 196.83 140.29 C 196.63 132.11 196.69 123.92 196.82 115.74 C 197.01 109.00 197.28 102.25 198.14 95.56 C 186.25 95.62 174.37 95.43 162.49 95.68 C 154.99 95.49 147.49 95.50 139.99 95.57 C 133.31 95.68 126.61 95.24 119.96 96.11 C 118.73 95.93 117.51 95.74 116.28 95.54 C 117.02 105.35 115.96 115.18 116.00 124.99 C 115.81 136.42 116.75 147.83 116.54 159.25 C 116.50 159.58 116.40 160.25 116.36 160.58 C 116.26 161.16 116.05 162.32 115.95 162.91 C 114.55 163.61 113.16 164.32 111.75 164.98 C 104.81 167.79 97.38 169.26 89.95 170.08 C 86.47 170.30 82.77 170.73 79.43 169.46 C 76.33 167.46 74.02 164.46 71.93 161.48 L 73.31 162.05 C 74.33 163.10 75.32 164.17 76.30 165.27 C 78.07 167.58 80.48 169.51 83.58 169.27 C 91.97 169.59 100.29 167.76 108.26 165.30 C 111.58 164.11 116.32 162.94 116.04 158.51 C 116.07 155.69 115.98 152.87 115.95 150.06 C 115.93 146.10 115.59 142.15 114.90 138.25 C 114.60 126.10 115.13 113.97 115.57 101.83 C 115.59 100.21 115.62 98.60 115.60 96.98 C 115.61 95.02 114.95 93.24 113.08 92.41 C 107.80 90.29 102.32 88.66 96.72 87.73 C 91.08 87.11 85.03 85.24 79.58 87.61 C 75.04 90.61 72.83 95.84 69.21 99.75 C 71.00 94.52 74.70 90.27 78.67 86.54 Z" />
<path fill="#676c71" d=" M 16.46 88.17 C 17.93 87.18 19.48 86.31 20.97 85.34 C 19.73 87.64 18.59 90.00 17.33 92.29 C 17.12 91.26 16.68 89.20 16.46 88.17 Z" />
<path fill="#ffbc44" d=" M 72.96 86.99 C 74.80 86.36 76.75 86.10 78.67 86.54 C 74.70 90.27 71.00 94.52 69.21 99.75 C 68.64 101.10 68.15 102.49 67.72 103.89 C 63.28 104.12 59.80 107.00 56.15 109.17 C 51.22 112.13 46.80 115.89 41.67 118.53 C 37.40 120.81 33.63 123.89 29.38 126.20 C 29.69 125.35 30.00 124.51 30.32 123.67 C 30.08 122.88 29.85 122.08 29.62 121.29 C 30.17 119.39 30.54 117.43 30.42 115.44 C 33.27 111.27 32.79 106.12 32.57 101.35 C 32.17 101.23 31.36 101.01 30.95 100.89 C 44.66 95.43 58.84 91.27 72.96 86.99 Z" />
<path fill="#4c4c4c" d=" M 79.58 87.61 C 85.03 85.24 91.08 87.11 96.72 87.73 C 97.04 91.20 97.40 94.67 97.92 98.12 C 91.31 100.56 84.64 102.81 78.05 105.30 C 76.66 106.09 75.39 105.21 74.24 104.47 L 73.23 103.91 C 72.39 105.97 71.68 108.08 70.88 110.15 C 69.69 110.25 68.51 110.37 67.33 110.43 C 67.15 110.07 66.79 109.34 66.62 108.97 C 66.93 107.26 67.30 105.57 67.72 103.89 C 68.15 102.49 68.64 101.10 69.21 99.75 C 72.83 95.84 75.04 90.61 79.58 87.61 Z" />
<path fill="#fecd42" d=" M 178.99 90.06 C 185.41 89.37 192.01 88.54 197.87 85.63 C 200.40 86.51 202.87 87.59 205.23 88.87 C 201.81 89.69 198.61 91.69 197.99 95.41 C 181.58 95.43 165.18 95.54 148.78 95.41 C 149.87 93.94 150.96 92.48 152.06 91.01 C 161.04 91.08 170.05 91.02 178.99 90.06 Z" />
<path fill="#d67c00" d=" M 6.56 95.60 C 8.27 92.43 10.35 88.73 13.80 87.34 L 15.48 87.18 C 10.58 91.59 10.29 98.49 7.80 104.19 C 3.91 115.59 4.62 127.97 5.18 139.83 C 5.45 143.97 4.87 148.87 8.03 152.10 C 9.65 156.23 10.35 160.69 12.33 164.69 C 14.09 168.17 17.90 169.72 20.87 171.96 C 15.73 170.66 10.66 167.75 8.02 163.00 C 2.79 154.34 2.33 143.83 1.98 133.99 C 2.10 121.14 1.20 107.63 6.56 95.60 Z" />
<path fill="#ffb322" d=" M 105.94 86.46 C 108.29 86.93 110.66 87.27 113.03 87.62 C 118.38 88.58 123.78 89.22 129.18 89.78 C 128.41 91.68 127.64 93.58 126.88 95.49 C 123.11 95.57 118.55 96.39 115.65 93.34 C 113.08 90.90 109.57 90.03 106.31 88.93 C 106.22 88.31 106.03 87.08 105.94 86.46 Z" />
<path fill="#999999" d=" M 96.72 87.73 C 102.32 88.66 107.80 90.29 113.08 92.41 C 108.32 95.15 103.06 96.79 98.04 98.95 L 97.92 98.12 C 97.40 94.67 97.04 91.20 96.72 87.73 Z" />
<path fill="#fecf44" d=" M 233.59 88.54 C 235.24 88.27 236.87 87.94 238.52 87.63 C 240.69 88.91 242.83 90.22 245.03 91.44 C 244.99 91.63 244.92 91.99 244.88 92.17 C 243.76 95.72 245.19 99.34 245.41 102.92 C 246.55 118.24 247.39 133.72 245.40 149.01 C 241.72 147.85 237.73 146.97 234.82 144.26 C 231.50 141.27 228.58 137.87 225.50 134.65 C 225.71 127.63 225.66 120.58 224.93 113.58 C 224.49 109.55 223.78 105.54 222.76 101.61 C 222.49 100.68 222.20 99.75 221.89 98.84 C 223.21 95.83 224.15 92.64 225.81 89.79 C 228.36 89.13 231.00 88.98 233.59 88.54 Z" />
<path fill="#b5b5b5" d=" M 10.46 101.48 C 12.09 97.00 11.99 90.96 16.46 88.17 C 16.68 89.20 17.12 91.26 17.33 92.29 C 15.48 95.65 13.13 98.72 10.46 101.48 Z" />
<path fill="#febe2f" d=" M 129.18 89.78 C 135.27 90.31 141.37 90.79 147.48 90.94 C 147.92 90.95 148.79 90.97 149.23 90.98 C 149.93 90.99 151.35 91.00 152.06 91.01 C 150.96 92.48 149.87 93.94 148.78 95.41 C 141.48 95.51 134.18 95.40 126.88 95.49 C 127.64 93.58 128.41 91.68 129.18 89.78 Z" />
<path fill="#676c71" d=" M 202.12 91.11 C 205.74 88.99 210.04 90.17 213.78 91.24 C 212.70 92.61 212.08 94.53 210.36 95.25 C 206.56 97.18 202.54 98.62 198.60 100.23 C 199.18 97.11 198.55 92.60 202.12 91.11 Z" />
<path fill="#585b60" d=" M 213.78 91.24 L 214.53 90.54 C 214.18 93.04 213.78 95.54 213.16 97.99 C 209.63 102.28 204.12 103.97 199.23 106.16 C 198.95 104.73 198.69 103.30 198.45 101.87 C 198.49 101.46 198.56 100.64 198.60 100.23 C 202.54 98.62 206.56 97.18 210.36 95.25 C 212.08 94.53 212.70 92.61 213.78 91.24 Z" />
<path fill="#323539" d=" M 214.53 90.54 C 217.90 92.33 220.49 95.30 221.89 98.84 C 222.20 99.75 222.49 100.68 222.76 101.61 C 219.07 104.22 214.96 106.14 210.86 108.00 C 211.60 104.66 212.34 101.31 213.16 97.99 C 213.78 95.54 214.18 93.04 214.53 90.54 Z" />
<path fill="#858585" d=" M 113.08 92.41 C 114.95 93.24 115.61 95.02 115.60 96.98 C 109.99 99.09 104.55 101.67 98.77 103.33 C 98.52 101.87 98.27 100.41 98.04 98.95 C 103.06 96.79 108.32 95.15 113.08 92.41 Z" />
<path fill="#ffe39d" d=" M 245.41 102.92 C 245.19 99.34 243.76 95.72 244.88 92.17 C 246.79 96.23 247.91 100.62 248.07 105.10 C 249.16 119.52 246.58 133.98 248.17 148.37 C 248.05 149.64 247.91 150.91 247.77 152.19 C 247.34 156.04 246.33 159.81 244.79 163.37 C 244.52 162.86 243.96 161.85 243.68 161.34 C 244.30 157.24 244.95 153.14 245.40 149.01 C 247.39 133.72 246.55 118.24 245.41 102.92 Z" />
<path fill="#ffa81a" d=" M 116.28 95.54 C 117.51 95.74 118.73 95.93 119.96 96.11 C 118.09 109.57 119.14 123.22 119.10 136.76 C 119.01 141.38 118.56 146.10 119.58 150.66 C 122.56 154.45 127.27 156.27 131.17 158.95 C 126.32 159.61 121.42 159.49 116.54 159.25 C 116.75 147.83 115.81 136.42 116.00 124.99 C 115.96 115.18 117.02 105.35 116.28 95.54 Z" />
<path fill="#ffc140" d=" M 119.96 96.11 C 126.61 95.24 133.31 95.68 139.99 95.57 C 147.49 95.50 154.99 95.49 162.49 95.68 C 158.44 98.17 153.34 97.74 149.34 100.37 C 145.07 103.08 140.79 105.75 136.28 108.06 L 136.27 108.10 L 135.91 109.38 C 132.17 114.44 128.89 120.47 129.72 126.98 C 129.98 131.52 132.40 135.59 135.95 138.36 C 135.94 141.20 135.97 144.05 135.99 146.90 L 136.00 147.73 C 136.45 147.80 137.35 147.95 137.80 148.02 C 140.26 148.00 142.73 148.00 145.20 148.04 C 145.65 147.98 146.56 147.85 147.01 147.78 L 147.02 146.95 C 147.03 145.02 147.02 143.10 147.00 141.17 C 153.85 141.61 159.96 138.26 165.75 135.07 C 169.81 133.09 174.04 131.40 177.80 128.85 C 182.40 125.54 188.99 128.05 193.46 124.51 C 194.83 121.69 195.72 118.67 196.82 115.74 C 196.69 123.92 196.63 132.11 196.83 140.29 C 194.87 142.25 194.02 144.91 193.27 147.51 C 188.51 148.07 183.73 147.80 178.96 147.77 C 173.44 147.57 169.07 151.56 163.85 152.69 C 152.28 156.50 138.68 155.76 128.68 148.32 C 124.26 145.63 121.63 141.10 119.10 136.76 C 119.14 123.22 118.09 109.57 119.96 96.11 Z" />
<path fill="#fed756" d=" M 162.49 95.68 C 174.37 95.43 186.25 95.62 198.14 95.56 C 197.28 102.25 197.01 109.00 196.82 115.74 C 195.72 118.67 194.83 121.69 193.46 124.51 C 188.99 128.05 182.40 125.54 177.80 128.85 C 174.04 131.40 169.81 133.09 165.75 135.07 C 167.59 131.37 169.92 127.96 172.26 124.57 C 169.99 124.26 167.72 123.97 165.45 123.72 C 165.41 119.98 167.08 115.19 163.33 112.67 C 158.48 109.67 152.50 109.37 146.93 109.29 L 146.55 108.72 C 146.47 108.62 146.30 108.41 146.22 108.31 C 143.16 107.16 139.75 107.79 136.56 108.04 L 136.28 108.06 C 140.79 105.75 145.07 103.08 149.34 100.37 C 153.34 97.74 158.44 98.17 162.49 95.68 Z" />
<path fill="#767676" d=" M 98.77 103.33 C 104.55 101.67 109.99 99.09 115.60 96.98 C 115.62 98.60 115.59 100.21 115.57 101.83 C 110.28 103.96 105.15 106.49 99.69 108.17 C 99.57 107.57 99.33 106.37 99.21 105.77 C 99.10 105.16 98.88 103.94 98.77 103.33 Z" />
<path fill="#383838" d=" M 78.05 105.30 C 84.64 102.81 91.31 100.56 97.92 98.12 L 98.04 98.95 C 98.27 100.41 98.52 101.87 98.77 103.33 C 98.88 103.94 99.10 105.16 99.21 105.77 C 89.66 108.52 80.55 112.69 70.93 115.18 C 72.18 111.66 73.46 108.14 74.24 104.47 C 75.39 105.21 76.66 106.09 78.05 105.30 Z" />
<path fill="#45474a" d=" M 199.23 106.16 C 204.12 103.97 209.63 102.28 213.16 97.99 C 212.34 101.31 211.60 104.66 210.86 108.00 C 210.64 108.99 210.40 109.98 210.15 110.97 C 206.23 112.99 202.22 114.83 198.05 116.28 C 198.03 111.48 197.85 106.65 198.45 101.87 C 198.69 103.30 198.95 104.73 199.23 106.16 Z" />
<path fill="#fece4e" d=" M 13.77 108.94 C 19.30 105.86 25.07 103.23 30.95 100.89 C 31.36 101.01 32.17 101.23 32.57 101.35 C 32.79 106.12 33.27 111.27 30.42 115.44 C 27.60 118.04 25.08 121.01 21.92 123.21 C 19.35 123.72 16.85 122.19 14.40 121.56 C 12.95 123.38 11.38 125.10 9.52 126.52 C 9.51 121.83 9.45 117.15 9.54 112.46 C 10.97 111.31 12.39 110.15 13.77 108.94 Z" />
<path fill="#5c5c5d" d=" M 99.69 108.17 C 105.15 106.49 110.28 103.96 115.57 101.83 C 115.13 113.97 114.60 126.10 114.90 138.25 C 113.36 131.36 115.36 123.44 111.28 117.31 C 108.68 118.53 106.10 119.82 103.57 121.17 C 102.71 118.71 101.85 116.26 101.10 113.77 C 100.55 111.92 100.10 110.05 99.69 108.17 Z" />
<path fill="#1e1f21" d=" M 222.76 101.61 C 223.78 105.54 224.49 109.55 224.93 113.58 C 218.87 116.50 212.85 119.45 206.64 122.03 C 207.59 118.27 209.10 114.69 210.15 110.97 C 210.40 109.98 210.64 108.99 210.86 108.00 C 214.96 106.14 219.07 104.22 222.76 101.61 Z" />
<path fill="#ffe39d" d=" M 5.18 139.83 C 4.62 127.97 3.91 115.59 7.80 104.19 C 7.69 105.88 7.63 107.57 7.64 109.27 C 7.65 111.17 7.39 113.05 7.05 114.91 C 5.48 123.53 5.14 132.46 6.85 141.09 C 6.43 140.77 5.60 140.15 5.18 139.83 Z" />
<path fill="#ffb434" d=" M 56.15 109.17 C 59.80 107.00 63.28 104.12 67.72 103.89 C 67.30 105.57 66.93 107.26 66.62 108.97 C 65.91 112.62 65.27 116.28 65.03 119.99 C 64.99 120.68 64.92 122.06 64.88 122.75 C 60.63 124.75 56.76 127.43 52.67 129.73 C 49.13 131.82 44.68 131.60 41.01 129.96 C 40.01 129.34 39.03 128.68 38.04 128.03 C 39.36 124.91 41.55 122.03 41.67 118.53 C 46.80 115.89 51.22 112.13 56.15 109.17 Z" />
<path fill="#151516" d=" M 73.23 103.91 L 74.24 104.47 C 73.46 108.14 72.18 111.66 70.93 115.18 C 70.21 119.59 66.59 122.77 66.06 127.15 C 67.41 126.80 68.78 126.49 70.09 125.98 C 71.68 124.37 72.56 122.23 73.69 120.30 C 74.14 120.88 75.03 122.03 75.47 122.60 C 84.15 120.06 92.42 116.31 101.10 113.77 C 101.85 116.26 102.71 118.71 103.57 121.17 C 104.89 125.02 106.59 128.74 108.64 132.26 C 103.93 135.19 98.34 136.02 93.34 138.32 C 85.09 141.19 76.86 144.12 68.67 147.16 C 68.21 148.67 67.76 150.19 67.32 151.71 C 65.98 147.29 65.25 142.72 64.84 138.13 C 64.58 133.01 64.67 127.87 64.88 122.75 C 64.92 122.06 64.99 120.68 65.03 119.99 C 65.56 120.15 66.60 120.47 67.12 120.62 C 67.19 119.43 67.02 118.26 66.39 117.22 C 68.01 114.94 69.70 112.69 70.88 110.15 C 71.68 108.08 72.39 105.97 73.23 103.91 Z" />
<path fill="#fcd151" d=" M 248.07 105.10 L 248.78 105.06 C 250.24 119.43 250.47 134.07 248.17 148.37 C 246.58 133.98 249.16 119.52 248.07 105.10 Z" />
<path fill="#f4a619" d=" M 248.78 105.06 C 250.40 104.95 252.03 104.84 253.66 104.73 L 253.89 104.72 C 254.66 112.45 255.14 120.21 255.21 127.98 C 256.06 134.42 254.39 140.79 254.39 147.23 L 254.01 147.36 C 251.27 147.94 249.09 149.74 247.77 152.19 C 247.91 150.91 248.05 149.64 248.17 148.37 C 250.47 134.07 250.24 119.43 248.78 105.06 Z" />
<path fill="#242425" d=" M 70.93 115.18 C 80.55 112.69 89.66 108.52 99.21 105.77 C 99.33 106.37 99.57 107.57 99.69 108.17 C 100.10 110.05 100.55 111.92 101.10 113.77 C 92.42 116.31 84.15 120.06 75.47 122.60 C 75.03 122.03 74.14 120.88 73.69 120.30 C 72.56 122.23 71.68 124.37 70.09 125.98 C 68.78 126.49 67.41 126.80 66.06 127.15 C 66.59 122.77 70.21 119.59 70.93 115.18 Z" />
<path fill="#000000" d=" M 7.64 109.27 C 8.17 108.68 9.21 107.50 9.73 106.91 C 9.64 108.76 9.59 110.61 9.54 112.46 C 9.45 117.15 9.51 121.83 9.52 126.52 C 9.47 132.18 9.47 137.85 9.55 143.51 C 9.56 145.43 9.56 147.34 9.54 149.26 C 9.27 148.82 8.73 147.94 8.47 147.49 C 7.88 145.37 7.31 143.24 6.85 141.09 C 5.14 132.46 5.48 123.53 7.05 114.91 C 7.39 113.05 7.65 111.17 7.64 109.27 Z" />
<path fill="#17181a" d=" M 136.28 108.06 L 136.56 108.04 C 136.49 108.05 136.34 108.09 136.27 108.10 L 136.28 108.06 Z" />
<path fill="#85919e" d=" M 136.56 108.04 C 139.75 107.79 143.16 107.16 146.22 108.31 C 146.30 108.41 146.47 108.62 146.55 108.72 L 146.93 109.29 C 147.00 110.89 147.04 112.50 147.05 114.10 C 146.09 112.45 145.00 110.89 143.91 109.34 C 142.03 111.63 140.66 114.33 140.30 117.29 C 139.52 123.16 139.40 129.12 139.81 135.02 C 140.27 138.87 140.69 143.21 143.85 145.90 C 144.93 144.35 146.01 142.79 147.00 141.17 C 147.02 143.10 147.03 145.02 147.02 146.95 C 146.56 147.23 145.65 147.77 145.20 148.04 C 142.73 148.00 140.26 148.00 137.80 148.02 C 137.34 147.74 136.44 147.18 135.99 146.90 C 135.97 144.05 135.94 141.20 135.95 138.36 C 136.00 128.70 136.05 119.04 135.91 109.38 L 136.27 108.10 C 136.34 108.09 136.49 108.05 136.56 108.04 Z" />
<path fill="#191b1e" d=" M 146.22 108.31 C 146.30 108.41 146.47 108.62 146.55 108.72 C 146.47 108.62 146.30 108.41 146.22 108.31 Z" />
<path fill="#473d2e" d=" M 65.03 119.99 C 65.27 116.28 65.91 112.62 66.62 108.97 C 66.79 109.34 67.15 110.07 67.33 110.43 C 68.51 110.37 69.69 110.25 70.88 110.15 C 69.70 112.69 68.01 114.94 66.39 117.22 C 67.02 118.26 67.19 119.43 67.12 120.62 C 66.60 120.47 65.56 120.15 65.03 119.99 Z" />
<path fill="#fed360" d=" M 146.93 109.29 C 152.50 109.37 158.48 109.67 163.33 112.67 C 167.08 115.19 165.41 119.98 165.45 123.72 C 167.72 123.97 169.99 124.26 172.26 124.57 C 169.92 127.96 167.59 131.37 165.75 135.07 C 159.96 138.26 153.85 141.61 147.00 141.17 C 147.09 132.15 147.05 123.12 147.05 114.10 C 147.04 112.50 147.00 110.89 146.93 109.29 Z" />
<path fill="#ffc956" d=" M 129.72 126.98 C 128.89 120.47 132.17 114.44 135.91 109.38 C 136.05 119.04 136.00 128.70 135.95 138.36 C 132.40 135.59 129.98 131.52 129.72 126.98 Z" />
<path fill="#a9b1bb" d=" M 140.30 117.29 C 140.66 114.33 142.03 111.63 143.91 109.34 C 145.00 110.89 146.09 112.45 147.05 114.10 C 147.05 123.12 147.09 132.15 147.00 141.17 C 146.01 142.79 144.93 144.35 143.85 145.90 C 140.69 143.21 140.27 138.87 139.81 135.02 C 139.40 129.12 139.52 123.16 140.30 117.29 Z" />
<path fill="#2e2f30" d=" M 198.05 116.28 C 202.22 114.83 206.23 112.99 210.15 110.97 C 209.10 114.69 207.59 118.27 206.64 122.03 C 204.03 123.89 201.31 125.59 198.37 126.86 C 198.12 123.34 198.01 119.81 198.05 116.28 Z" />
<path fill="#fec033" d=" M 21.92 123.21 C 25.08 121.01 27.60 118.04 30.42 115.44 C 30.54 117.43 30.17 119.39 29.62 121.29 C 29.85 122.08 30.08 122.88 30.32 123.67 C 30.00 124.51 29.69 125.35 29.38 126.20 C 33.63 123.89 37.40 120.81 41.67 118.53 C 41.55 122.03 39.36 124.91 38.04 128.03 C 39.03 128.68 40.01 129.34 41.01 129.96 C 39.90 130.21 38.79 130.47 37.68 130.73 C 34.46 138.35 28.94 144.79 21.96 149.22 C 17.82 147.33 13.72 145.35 9.55 143.51 C 9.47 137.85 9.47 132.18 9.52 126.52 C 11.38 125.10 12.95 123.38 14.40 121.56 C 16.85 122.19 19.35 123.72 21.92 123.21 Z" />
<path fill="#000000" d=" M 138.46 117.35 C 139.83 117.98 139.05 120.39 138.79 121.60 C 136.44 121.94 136.64 118.08 138.46 117.35 Z" />
<path fill="#3c3f44" d=" M 103.57 121.17 C 106.10 119.82 108.68 118.53 111.28 117.31 C 115.36 123.44 113.36 131.36 114.90 138.25 C 115.59 142.15 115.93 146.10 115.95 150.06 C 109.68 153.62 102.62 155.30 95.96 157.92 C 89.46 160.51 82.52 161.97 76.30 165.27 C 75.32 164.17 74.33 163.10 73.31 162.05 C 72.60 160.40 71.94 158.72 71.28 157.05 C 78.17 154.73 84.95 152.09 91.85 149.78 C 99.15 146.84 106.83 144.91 113.93 141.48 C 112.19 138.39 110.41 135.33 108.64 132.26 C 106.59 128.74 104.89 125.02 103.57 121.17 Z" />
<path fill="#cdcfd5" d=" M 143.22 119.21 C 144.86 119.40 145.00 121.34 145.41 122.60 C 146.11 127.01 145.90 131.62 144.59 135.90 C 142.60 135.91 142.36 133.56 142.07 132.08 C 141.57 127.80 141.52 123.24 143.22 119.21 Z" />
<path fill="#ffab18" d=" M 52.67 129.73 C 56.76 127.43 60.63 124.75 64.88 122.75 C 64.67 127.87 64.58 133.01 64.84 138.13 C 64.46 136.41 63.97 134.71 63.51 133.01 C 61.08 137.87 59.86 143.29 56.77 147.80 C 54.06 151.85 51.61 156.14 48.03 159.51 C 39.36 156.04 30.49 153.06 21.96 149.22 C 28.94 144.79 34.46 138.35 37.68 130.73 C 38.79 130.47 39.90 130.21 41.01 129.96 C 44.68 131.60 49.13 131.82 52.67 129.73 Z" />
<path fill="#000000" d=" M 137.28 122.85 C 139.02 125.04 139.12 127.86 137.38 130.10 C 137.23 127.69 137.12 125.27 137.28 122.85 Z" />
<path fill="#171718" d=" M 138.70 137.12 C 136.14 136.49 136.28 131.80 138.61 130.96 C 138.70 133.01 138.69 135.07 138.70 137.12 Z" />
<path fill="#26282b" d=" M 108.64 132.26 C 110.41 135.33 112.19 138.39 113.93 141.48 C 106.83 144.91 99.15 146.84 91.85 149.78 C 84.95 152.09 78.17 154.73 71.28 157.05 C 71.94 158.72 72.60 160.40 73.31 162.05 L 71.93 161.48 C 69.75 158.56 68.38 155.16 67.32 151.71 C 67.76 150.19 68.21 148.67 68.67 147.16 C 76.86 144.12 85.09 141.19 93.34 138.32 C 98.34 136.02 103.93 135.19 108.64 132.26 Z" />
<path fill="#fe9700" d=" M 56.77 147.80 C 59.86 143.29 61.08 137.87 63.51 133.01 C 63.97 134.71 64.46 136.41 64.84 138.13 C 65.25 142.72 65.98 147.29 67.32 151.71 C 68.38 155.16 69.75 158.56 71.93 161.48 C 74.02 164.46 76.33 167.46 79.43 169.46 C 82.77 170.73 86.47 170.30 89.95 170.08 C 97.38 169.26 104.81 167.79 111.75 164.98 C 112.49 166.15 113.23 167.33 113.97 168.50 C 103.95 170.45 93.58 171.91 84.25 176.22 C 86.44 176.72 88.66 177.08 90.87 177.46 C 90.85 177.93 90.80 178.87 90.78 179.34 C 79.46 179.81 68.12 178.64 56.81 178.28 L 56.69 178.06 C 55.61 174.00 50.98 173.97 47.59 173.27 C 48.08 172.09 48.57 170.92 49.06 169.75 C 47.37 168.88 45.67 168.06 43.96 167.27 C 44.24 166.93 44.80 166.24 45.08 165.90 C 43.41 163.93 41.66 162.04 40.01 160.06 C 44.36 161.42 48.62 163.17 53.14 163.91 C 51.96 161.90 50.20 160.36 48.03 159.51 C 51.61 156.14 54.06 151.85 56.77 147.80 Z" />
<path fill="#fec133" d=" M 225.50 134.65 C 228.58 137.87 231.50 141.27 234.82 144.26 C 237.73 146.97 241.72 147.85 245.40 149.01 C 244.95 153.14 244.30 157.24 243.68 161.34 C 239.17 160.30 234.54 158.99 230.84 156.06 C 228.38 154.05 226.20 151.72 223.83 149.60 C 224.79 144.67 225.21 139.66 225.50 134.65 Z" />
<path fill="#ffb228" d=" M 119.10 136.76 C 121.63 141.10 124.26 145.63 128.68 148.32 C 138.68 155.76 152.28 156.50 163.85 152.69 C 169.07 151.56 173.44 147.57 178.96 147.77 C 183.73 147.80 188.51 148.07 193.27 147.51 C 194.02 144.91 194.87 142.25 196.83 140.29 C 197.02 147.12 197.30 153.96 198.23 160.75 C 175.67 160.47 153.10 160.59 130.54 160.70 C 125.81 160.54 121.08 160.46 116.36 160.58 C 116.40 160.25 116.50 159.58 116.54 159.25 C 121.42 159.49 126.32 159.61 131.17 158.95 C 127.27 156.27 122.56 154.45 119.58 150.66 C 118.56 146.10 119.01 141.38 119.10 136.76 Z" />
<path fill="#000000" d=" M 137.04 138.37 C 138.69 137.87 139.27 138.41 138.76 139.99 C 137.09 140.51 136.51 139.97 137.04 138.37 Z" />
<path fill="#e4a14b" d=" M 5.18 139.83 C 5.60 140.15 6.43 140.77 6.85 141.09 C 7.31 143.24 7.88 145.37 8.47 147.49 C 8.35 149.03 8.20 150.56 8.03 152.10 C 4.87 148.87 5.45 143.97 5.18 139.83 Z" />
<path fill="#333333" d=" M 208.00 149.89 C 212.95 147.55 217.61 144.49 222.95 143.06 C 223.01 146.66 222.74 150.28 221.85 153.78 L 221.31 153.95 C 214.05 156.07 207.88 160.78 200.64 163.00 L 199.99 163.24 C 199.29 160.09 198.71 156.76 199.61 153.60 C 202.28 152.09 205.28 151.30 208.00 149.89 Z" />
<path fill="#f18a00" d=" M 9.55 143.51 C 13.72 145.35 17.82 147.33 21.96 149.22 C 30.49 153.06 39.36 156.04 48.03 159.51 C 50.20 160.36 51.96 161.90 53.14 163.91 C 48.62 163.17 44.36 161.42 40.01 160.06 C 41.66 162.04 43.41 163.93 45.08 165.90 C 44.80 166.24 44.24 166.93 43.96 167.27 C 40.71 166.02 37.39 164.99 34.05 164.03 C 27.12 162.11 21.08 158.04 14.38 155.55 C 17.42 159.70 20.77 163.65 22.65 168.50 C 25.21 169.67 28.06 169.92 30.80 170.39 C 36.36 171.57 42.01 172.23 47.59 173.27 C 50.98 173.97 55.61 174.00 56.69 178.06 C 44.99 177.34 33.12 176.34 21.91 172.67 C 21.58 171.96 21.25 171.25 20.91 170.54 C 19.84 168.27 18.73 166.02 17.49 163.85 C 15.65 160.44 13.20 157.43 10.62 154.57 C 9.83 153.67 8.95 152.86 8.03 152.10 C 8.20 150.56 8.35 149.03 8.47 147.49 C 8.73 147.94 9.27 148.82 9.54 149.26 C 9.56 147.34 9.56 145.43 9.55 143.51 Z" />
<path fill="#2c2e32" d=" M 135.99 146.90 C 136.44 147.18 137.34 147.74 137.80 148.02 C 137.35 147.95 136.45 147.80 136.00 147.73 L 135.99 146.90 Z" />
<path fill="#303439" d=" M 145.20 148.04 C 145.65 147.77 146.56 147.23 147.02 146.95 L 147.01 147.78 C 146.56 147.85 145.65 147.98 145.20 148.04 Z" />
<path fill="#e18d09" d=" M 247.77 152.19 C 249.09 149.74 251.27 147.94 254.01 147.36 C 253.56 156.68 251.62 166.32 246.12 174.05 C 244.88 174.15 243.65 174.23 242.41 174.31 C 243.97 171.39 245.38 168.36 246.20 165.14 C 246.00 164.89 245.60 164.39 245.40 164.14 L 244.79 163.37 C 246.33 159.81 247.34 156.04 247.77 152.19 Z" />
<path fill="#50565d" d=" M 95.96 157.92 C 102.62 155.30 109.68 153.62 115.95 150.06 C 115.98 152.87 116.07 155.69 116.04 158.51 C 110.85 158.20 106.17 160.97 101.34 162.45 C 95.50 164.95 89.16 166.18 83.58 169.27 C 80.48 169.51 78.07 167.58 76.30 165.27 C 82.52 161.97 89.46 160.51 95.96 157.92 Z" />
<path fill="#ffb929" d=" M 223.83 149.60 C 226.20 151.72 228.38 154.05 230.84 156.06 C 234.54 158.99 239.17 160.30 243.68 161.34 C 243.96 161.85 244.52 162.86 244.79 163.37 L 245.40 164.14 C 243.72 165.21 242.04 166.28 240.30 167.23 C 235.64 167.57 230.96 167.38 226.34 166.77 C 223.02 166.11 219.77 165.14 216.53 164.16 C 221.15 160.75 222.70 154.93 223.83 149.60 Z" />
<path fill="#000000" d=" M 8.03 152.10 C 8.95 152.86 9.83 153.67 10.62 154.57 C 11.53 158.62 12.48 162.72 14.45 166.41 C 14.81 166.66 15.53 167.16 15.89 167.40 C 17.53 168.50 19.21 169.54 20.91 170.54 C 21.25 171.25 21.58 171.96 21.91 172.67 C 21.65 172.49 21.13 172.14 20.87 171.96 C 17.90 169.72 14.09 168.17 12.33 164.69 C 10.35 160.69 9.65 156.23 8.03 152.10 Z" />
<path fill="#494949" d=" M 200.64 163.00 C 207.88 160.78 214.05 156.07 221.31 153.95 C 220.77 158.32 218.06 162.36 214.02 164.20 C 209.91 166.45 203.79 167.17 200.64 163.00 Z" />
<path fill="#b7b7b7" d=" M 10.62 154.57 C 13.20 157.43 15.65 160.44 17.49 163.85 C 16.96 165.03 16.43 166.22 15.89 167.40 C 15.53 167.16 14.81 166.66 14.45 166.41 C 12.48 162.72 11.53 158.62 10.62 154.57 Z" />
<path fill="#ffb11f" d=" M 14.38 155.55 C 21.08 158.04 27.12 162.11 34.05 164.03 C 33.94 165.92 33.83 167.82 33.72 169.72 C 32.99 169.89 31.53 170.22 30.80 170.39 C 28.06 169.92 25.21 169.67 22.65 168.50 C 20.77 163.65 17.42 159.70 14.38 155.55 Z" />
<path fill="#5f676f" d=" M 101.34 162.45 C 106.17 160.97 110.85 158.20 116.04 158.51 C 116.32 162.94 111.58 164.11 108.26 165.30 C 100.29 167.76 91.97 169.59 83.58 169.27 C 89.16 166.18 95.50 164.95 101.34 162.45 Z" />
<path fill="#ff9e07" d=" M 116.36 160.58 C 121.08 160.46 125.81 160.54 130.54 160.70 C 135.84 165.20 142.91 164.64 149.37 164.85 C 149.27 168.52 149.23 172.20 149.22 175.87 C 166.43 175.21 183.66 175.23 200.86 174.44 C 200.73 174.16 200.47 173.59 200.34 173.30 L 199.69 171.95 C 204.94 170.59 210.40 170.16 215.58 168.50 C 219.07 167.42 222.69 166.82 226.34 166.77 C 230.96 167.38 235.64 167.57 240.30 167.23 C 238.37 168.36 236.36 169.41 234.73 170.97 C 234.72 172.56 234.45 174.83 236.20 175.66 C 238.32 176.74 240.66 175.57 242.41 174.31 C 243.65 174.23 244.88 174.15 246.12 174.05 C 244.16 176.08 241.71 177.65 238.91 178.21 C 230.76 180.19 222.30 179.86 213.98 180.25 C 189.98 180.26 165.99 180.25 141.99 180.25 C 128.32 179.70 114.62 180.23 100.95 179.87 C 100.68 180.02 100.15 180.33 99.88 180.49 C 98.61 180.39 97.33 180.27 96.06 180.16 C 96.32 181.86 96.58 183.56 96.85 185.26 C 95.05 184.90 92.91 185.05 91.58 183.55 C 90.46 182.46 90.86 180.73 90.78 179.34 C 90.80 178.87 90.85 177.93 90.87 177.46 C 88.66 177.08 86.44 176.72 84.25 176.22 C 105.06 176.32 125.89 176.48 146.69 175.73 L 147.55 175.85 C 147.53 173.20 147.49 170.55 147.49 167.91 L 147.51 166.51 L 147.52 165.44 C 136.29 165.72 125.07 166.76 113.97 168.50 C 113.23 167.33 112.49 166.15 111.75 164.98 C 113.16 164.32 114.55 163.61 115.95 162.91 C 116.05 162.32 116.26 161.16 116.36 160.58 Z" />
<path fill="#ffa914" d=" M 130.54 160.70 C 153.10 160.59 175.67 160.47 198.23 160.75 C 198.70 162.42 199.20 164.31 200.88 165.20 C 205.70 168.16 211.91 166.94 216.53 164.16 C 219.77 165.14 223.02 166.11 226.34 166.77 C 222.69 166.82 219.07 167.42 215.58 168.50 C 210.40 170.16 204.94 170.59 199.69 171.95 C 197.29 170.18 194.50 169.03 191.65 168.25 C 177.81 164.93 163.47 165.58 149.37 164.85 C 142.91 164.64 135.84 165.20 130.54 160.70 Z" />
<path fill="#676c71" d=" M 17.49 163.85 C 18.73 166.02 19.84 168.27 20.91 170.54 C 19.21 169.54 17.53 168.50 15.89 167.40 C 16.43 166.22 16.96 165.03 17.49 163.85 Z" />
<path fill="#ffa410" d=" M 34.05 164.03 C 37.39 164.99 40.71 166.02 43.96 167.27 C 45.67 168.06 47.37 168.88 49.06 169.75 C 48.57 170.92 48.08 172.09 47.59 173.27 C 42.01 172.23 36.36 171.57 30.80 170.39 C 31.53 170.22 32.99 169.89 33.72 169.72 C 33.83 167.82 33.94 165.92 34.05 164.03 Z" />
<path fill="#ad0c06" d=" M 245.40 164.14 C 245.60 164.39 246.00 164.89 246.20 165.14 C 245.38 168.36 243.97 171.39 242.41 174.31 C 240.66 175.57 238.32 176.74 236.20 175.66 C 234.45 174.83 234.72 172.56 234.73 170.97 C 236.36 169.41 238.37 168.36 240.30 167.23 C 242.04 166.28 243.72 165.21 245.40 164.14 Z" />
<path fill="#151516" d=" M 149.37 164.85 C 163.47 165.58 177.81 164.93 191.65 168.25 C 186.79 169.99 181.96 171.79 177.11 173.54 C 184.85 173.36 192.67 174.83 200.34 173.30 C 200.47 173.59 200.73 174.16 200.86 174.44 C 183.66 175.23 166.43 175.21 149.22 175.87 C 149.23 172.20 149.27 168.52 149.37 164.85 Z" />
<path fill="#000000" d=" M 113.97 168.50 C 125.07 166.76 136.29 165.72 147.52 165.44 L 147.51 166.51 C 144.15 166.42 140.78 166.46 137.44 166.86 C 124.88 167.45 112.36 169.11 100.11 171.96 C 96.67 172.77 93.06 173.28 90.05 175.29 C 98.86 175.77 107.72 175.46 116.54 175.21 C 120.22 175.37 123.91 175.50 127.59 175.23 C 133.95 175.66 140.41 174.28 146.69 175.73 C 125.89 176.48 105.06 176.32 84.25 176.22 C 93.58 171.91 103.95 170.45 113.97 168.50 Z" />
<path fill="#383c40" d=" M 100.11 171.96 C 112.36 169.11 124.88 167.45 137.44 166.86 C 130.88 170.65 123.10 171.41 116.54 175.21 C 107.72 175.46 98.86 175.77 90.05 175.29 C 93.06 173.28 96.67 172.77 100.11 171.96 Z" />
<path fill="#27292c" d=" M 137.44 166.86 C 140.78 166.46 144.15 166.42 147.51 166.51 L 147.49 167.91 C 140.94 170.60 133.89 171.94 127.59 175.23 C 123.91 175.50 120.22 175.37 116.54 175.21 C 123.10 171.41 130.88 170.65 137.44 166.86 Z" />
<path fill="#1b1c1e" d=" M 127.59 175.23 C 133.89 171.94 140.94 170.60 147.49 167.91 C 147.49 170.55 147.53 173.20 147.55 175.85 L 146.69 175.73 C 140.41 174.28 133.95 175.66 127.59 175.23 Z" />
<path fill="#212122" d=" M 177.11 173.54 C 181.96 171.79 186.79 169.99 191.65 168.25 C 194.50 169.03 197.29 170.18 199.69 171.95 L 200.34 173.30 C 192.67 174.83 184.85 173.36 177.11 173.54 Z" />
<path fill="#ffc139" d=" M 96.06 180.16 C 97.33 180.27 98.61 180.39 99.88 180.49 C 100.36 182.78 98.52 184.17 96.85 185.26 C 96.58 183.56 96.32 181.86 96.06 180.16 Z" />
</svg>
