<?xml version="1.0" encoding="UTF-8" standalone="no"?>
<svg
   xmlns:dc="http://purl.org/dc/elements/1.1/"
   xmlns:cc="http://creativecommons.org/ns#"
   xmlns:rdf="http://www.w3.org/1999/02/22-rdf-syntax-ns#"
   xmlns:svg="http://www.w3.org/2000/svg"
   xmlns="http://www.w3.org/2000/svg"
   xmlns:sodipodi="http://sodipodi.sourceforge.net/DTD/sodipodi-0.dtd"
   xmlns:inkscape="http://www.inkscape.org/namespaces/inkscape"
   width="142.94099"
   height="317.4563"
   viewBox="0 0 114.3528 253.96504"
   version="1.1"
   id="svg12758"
   inkscape:version="0.91 r13725"
   sodipodi:docname="taxi2.svg">
  <metadata
     id="metadata12814">
    <rdf:RDF>
      <cc:Work
         rdf:about="">
        <dc:format>image/svg+xml</dc:format>
        <dc:type
           rdf:resource="http://purl.org/dc/dcmitype/StillImage" />
        <dc:title></dc:title>
      </cc:Work>
    </rdf:RDF>
  </metadata>
  <defs
     id="defs12812" />
  <sodipodi:namedview
     pagecolor="#ffffff"
     bordercolor="#666666"
     borderopacity="1"
     objecttolerance="10"
     gridtolerance="10"
     guidetolerance="10"
     inkscape:pageopacity="0"
     inkscape:pageshadow="2"
     inkscape:window-width="1920"
     inkscape:window-height="1005"
     id="namedview12810"
     showgrid="false"
     borderlayer="true"
     units="px"
     fit-margin-top="0"
     fit-margin-left="0"
     fit-margin-right="0"
     fit-margin-bottom="0"
     inkscape:zoom="2.95"
     inkscape:cx="72.61242"
     inkscape:cy="149.47072"
     inkscape:window-x="-9"
     inkscape:window-y="-9"
     inkscape:window-maximized="1"
     inkscape:current-layer="svg12758" />
  <path
     d="m 114.3528,90.847406 c -0.13,1.66 -0.13,3.33 -0.44,4.98 -0.87,1.85 -3.07,2.02 -4.77,2.62 0.41,28.200004 0.24,56.420004 0.24,84.630004 0.09,15.02 0.37,30.07 -0.53,45.08 -0.64,5.98 -1.09,13.28 -6.69,16.88 -10.570002,7.13 -23.810002,6.83 -35.970002,8.33 -6.65,1.42 -13.39,-0.11 -20.08,-0.31 -11.09,-0.96 -22.850005,-1.36 -32.680005,-7.22 -3.39,-1.78 -5.7999997,-5.1 -6.5899997,-8.84 -2.17,-8.8 -1.59,-17.94 -2.02,-26.92 0.02,-23.01 0,-46.02 0.01,-69.02 0.58,-14.19 0.19,-28.39 0.33,-42.590004 -2.2,-0.52 -5.13999999,-1.53 -5.07999999,-4.3 -0.42,-1.98 0.85,-3.57 1.73999999,-5.18 1.23,-0.14 2.46,-0.28 3.69,-0.43 0.29,-17.16 0.92,-34.35 3.07,-51.39 0.78,-5.74 1.8599997,-11.46 3.6799997,-16.97 3.08,-1.43 6.06,-3.09 8.84,-5.06 2.96,-2.16 6,-4.2 9.030005,-6.2599998 1.27,-0.84 2.49,-1.77 3.69,-2.72 -4.45,0.7 -8.860005,1.82 -12.970005,3.6899997 -3.78,1.7400001 -5.68,5.6600001 -7.8,9.0000001 1.43,-5.99 5.33,-11.4199998 11,-14.0299998 10.570005,-5.04000005 22.630005,-4.91000005 34.080005,-4.77000002 9.02,-0.18000003 18.2,0.04 26.9,2.68000002 5.21,1.59 10.34,4.45 13.29,9.1899998 3.740002,6.03 5.450002,13.07 6.650002,20 3.15,18.65 3.2,37.6 4.14,56.44 1.91,0.48 3.7,1.27 5.24,2.49 z"
     id="path12762"
     inkscape:connector-curvature="0"
     style="fill:#fdba32" />
  <path
     id="path12808"
     d="m 12.812793,93.077406 c 4.47,17.150004 6.5,34.860004 7.05,52.540004 -3.6,0.05 -7.2,0.07 -10.7899997,0.01 0.1,-13.51 -0.55,-27 -0.3,-40.51 0.18,-7.560004 -0.63,-15.160004 0.34,-22.700004 1.8699997,3.3 2.7499997,7.02 3.6999997,10.66 z m 7.26,54.180004 c 0.41,9.98 -0.28,19.96 -1.05,29.91 -0.75,6.22 -1.4,12.67 -4.29,18.34 -0.74,1.77 -2.45,2.72 -4.02,3.66 -1.0299997,-6.68 -0.5,-13.44 -0.62,-20.15 -0.2899997,-10.63 -0.7299997,-21.26 -0.8999997,-31.9 3.6299997,0.02 7.2499997,0.07 10.8799997,0.14 z m -5.29,86.12 c 1.83,3.77 4.06,7.32 6.3,10.84 -4.14,-0.82 -8.63,-2.13 -11.3499997,-5.6 -0.36,-1.67 -0.15,-3.39 -0.15,-5.08 1.7299997,-0.06 3.4699997,-0.11 5.1999997,-0.16 z M 30.132798,8.8774062 c -3.030005,2.0599998 -6.070005,4.0999998 -9.030005,6.2599998 -1.15,-0.4 -2.29,-0.81 -3.43,-1.22 2.04,-1.25 4.22,-2.32 6.61,-2.67 1.97,-0.73 3.93,-1.5100001 5.850005,-2.3699998 z m 3.69,-2.72 c -1.2,0.95 -2.42,1.88 -3.69,2.72 -1.920005,0.8599997 -3.880005,1.6399998 -5.850005,2.3699998 -2.39,0.35 -4.57,1.42 -6.61,2.67 1.14,0.41 2.28,0.82 3.43,1.22 -2.78,1.97 -5.76,3.63 -8.84,5.06 0.2,-0.34 0.59,-1.01 0.79,-1.35 2.12,-3.34 4.02,-7.26 7.8,-9.0000001 4.11,-1.8699997 8.520005,-2.9899997 12.970005,-3.6899997 z m 4.52,137.3600038 c 1.45,3.05 -3.36,0.04 0,0 z m -0.01,-9.34 c 1.61,2.99 -3.37,0.19 0,0 z m 8.37,0.95 c 0.5,1.68 -0.04,2.25 -1.62,1.74 -0.51,-1.69 0.03,-2.27 1.62,-1.74 z m 8.1,-0.61 c -0.45,3.69 -4.67,2.46 -7.24,3.11 -0.03,-0.79 -0.09,-2.38 -0.13,-3.17 2.46,0.05 4.92,0.06 7.37,0.06 z m 7.9,-0.02 0.33,2.31 c -2.87,0.22 -5.76,0.35 -8.6,-0.25 0.62,-0.73 1.26,-1.44 1.91,-2.13 2.12,0.06 4.24,0.08 6.36,0.07 z m 4.99,1.89 c -0.44,1.51 -3.75,1.48 -4.17,-0.07 0.63,-1.7 3.42,-1.34 4.17,0.07 z m 7.09,4.18 c -0.05,0.91 -0.09,1.83 -0.14,2.75 -0.58,0.31 -1.74,0.93 -2.32,1.24 -8.74,0.11 -17.48,0.14 -26.23,0.07 -1.91,0.02 -3.77,-0.5 -5.6,-1 0.07,-1.29 0.13,-2.57 0.19,-3.85 1.46,-0.28 2.93,-0.53 4.4,-0.79 1.06,-0.41 2.12,-0.81 3.18,-1.2 7.6,1.12 15.57,-1.77 22.81,1.44 1.24,0.45 2.48,0.88 3.71,1.34 z m 1.99,3.54 c -0.64,0.54 -0.64,0.54 0,0 z m -0.05,-9.59 c -0.59,0.59 -0.59,0.59 0,0 z m -21.55,-130.7400038 c 7.95,0.16 16.33,0.37 23.65,3.85 -14.4,0.09 -28.82,0.1 -43.22,0.02 5.84,-3.49 12.96,-3.54 19.57,-3.87 z m 37.28,238.6300038 c -4.25,2.67 -9.46,3.03 -14.35,3.13 -13.98,-0.04 -27.96,-0.08 -41.94,-0.13 -4.88,-0.35 -10.020005,-0.68 -14.320005,-3.25 7.510005,0.2 14.810005,2.5 22.340005,2.49 10.99,0.29 21.98,0.14 32.97,-0.13 5.16,-0.18 10.17,-1.61 15.3,-2.11 z m 3.49,-229.470004 c -0.19,0.89 -0.38,1.77 -0.59,2.66 -0.58,-0.18 -1.73,-0.53 -2.31,-0.7 -2.98,-1.91 -5.75,-4.13 -8.75,-6.0199998 3.76,1.6899998 7.71,2.8899998 11.65,4.0599998 z m 1.18,82.34 c -1.53,4.710002 -1.97,9.910004 -4.59,14.180004 -0.43,0.13 -1.28,0.38 -1.71,0.5 -0.14,-2.88 -1.3,-5.53 -2.58,-8.07 -0.7,-1.75 -1.38,-3.520004 -2.06,-5.290004 3.58,-0.87 7.26,-1.19 10.94,-1.32 z m 0.36,-19.71 c 2.520002,2.47 2.17,6.34 2.16,9.58 -0.67,8.96 -2.35,18.000004 -6,26.250004 -0.61,1.83 -2.31,2.73 -3.9,3.59 -0.01,27 -0.29,54.01 0.19,81 1.58,0.81 3.61,1.2 4.51,2.91 3.74,6.16 1.26,14.9 -4.43,19.01 -4.84,3.14 -10.72,3.95 -16.29,4.85 -12.12,1.35 -24.45,1.41 -36.51,-0.54 -4.92,-0.93 -10.170005,-1.96 -14.110005,-5.28 -4.71,-4.48 -6.78,-12.33 -3.19,-18.09 1.97,-3.13 6.19,-2.61 9.370005,-3.18 14.9,-1.19 29.88,-1.04 44.81,-0.61 5.12,-0.16 10.18,0.67 15.27,1.08 0.32,-27.16 0.18,-54.33 0.25,-81.49 -14.47,0.33 -28.93,-1.22 -43.39,-0.33 -7.33,-0.01 -14.68,0.87 -21.990005,0.19 -3.18,-0.29 -3.71,-4.16 -4.91,-6.51 -3.04,-9.560004 -5.62,-19.830004 -4.04,-29.890004 2.71,-4.81 7.62,-8.07 12.41,-10.62 10.350005,-4.88 22.070005,-5.18 33.290005,-4.64 8.22,0.4 16.44,1.67 24.25,4.31 4.79,1.56 8.82,4.81 12.25,8.41 z m -4.06,-65.8100001 c 4.14,1.9400001 6.32,6.2700001 7.920002,10.3100001 -2.830002,-1.62 -5.680002,-3.22 -8.300002,-5.17 0.58,0.17 1.73,0.52 2.31,0.7 0.21,-0.89 0.4,-1.77 0.59,-2.66 -3.94,-1.17 -7.89,-2.37 -11.65,-4.0599998 -1.43,-0.52 -2.45,-1.68 -3.49,-2.73 4.31,0.78 8.6,1.87 12.62,3.6099997 z M 104.7128,233.53741 c -0.15,2 0.84,4.6 -0.98,6.07 -2.73,2.48 -6.400002,3.44 -9.850002,4.47 1.66,-3.74 3.93,-7.15 5.95,-10.7 1.630002,0.05 3.250002,0.1 4.880002,0.16 z m 0.12,-86.33 c -1.03,17.32 -0.24,34.72 -1.64,52.01 -4.290002,-2.28 -5.600002,-7.2 -6.560002,-11.6 -2.75,-13.3 -2.58,-26.95 -2.49,-40.46 3.56,0.03 7.130002,0.01 10.690002,0.05 z m 0.14,-64.800004 c 0.36,4.17 0.55,8.37 0.33,12.56 -0.47,16.900004 0.34,33.830004 -0.59,50.720004 -3.53,0 -7.060002,-0.01 -10.600002,-0.09 0.71,-19.31 3.03,-38.66 8.390002,-57.270004 0.58,-2.06 1.44,-4.04 2.47,-5.92 z"
     inkscape:connector-curvature="0" />
</svg>
